<?xml version="1.0" encoding="utf-8"?>
<!-- Generator: Adobe Illustrator 23.0.1, SVG Export Plug-In . SVG Version: 6.00 Build 0)  -->
<svg version="1.1" id="Layer_1" xmlns="http://www.w3.org/2000/svg" xmlns:xlink="http://www.w3.org/1999/xlink" x="0px" y="0px"
	 viewBox="0 0 72 60" style="enable-background:new 0 0 72 60;" xml:space="preserve">
<g transform="translate(0,-952.36218)">
	<path d="M26,952.4l-5,10H7c-3.9,0-7,3.1-7,7v36c0,3.9,3.1,7,7,7h58c3.9,0,7-3.1,7-7v-36c0-3.9-3.1-7-7-7H51l-5-10H26z M36,970.4
		c9.4,0,17,7.6,17,17s-7.6,17-17,17c-9.4,0-17-7.6-17-17C19,978,26.6,970.4,36,970.4z M36,976.4c-6.1,0-11,4.9-11,11s4.9,11,11,11
		c6.1,0,11-4.9,11-11S42.1,976.4,36,976.4z"/>
</g>
</svg>
