<?xml version="1.0" encoding="utf-8"?>
<!-- Generator: Adobe Illustrator 23.0.1, SVG Export Plug-In . SVG Version: 6.00 Build 0)  -->
<svg version="1.1" id="Layer_1" xmlns="http://www.w3.org/2000/svg" xmlns:xlink="http://www.w3.org/1999/xlink" x="0px" y="0px"
	 viewBox="0 0 286.6 84.9" style="enable-background:new 0 0 286.6 84.9;" xml:space="preserve">
<style type="text/css">
	.st0{fill:#FFFFFF;}
</style>
<g>
	<circle class="st0" cx="11.8" cy="11.8" r="11.8"/>
	<path class="st0" d="M60,55.6l36.6,22.1c-10.8,7.1-24.4,9.2-36.9,5.1L60,55.6z M101.1,74.3c3.2-2.8,6-6.2,8.3-10
		c4.7-7.7,6.5-16.4,6-24.9L77.7,60.3L101.1,74.3z M114.6,33.9c-2.3-11.2-9.2-21.6-19.8-28c-1.1-0.6-2.2-1.3-3.3-1.8l-0.9,43.1
		L114.6,33.9z M44.5,10.6c-3.1,2.8-5.8,6.1-8.1,9.8c-4.6,7.6-6.6,15.9-6.1,24.2l37.5-19.9L44.5,10.6z M55.1,37.3l-0.5,43.5
		c-1.3-0.6-2.4-1.2-3.7-2C40,72.2,33.2,61.6,31.1,49.9L55.1,37.3z M85.9,29.3L49.2,7.2C60,0.1,73.7-2,86.2,2.1L85.9,29.3z"/>
	<g>
		<path class="st0" d="M167.3,35.5c0,2.9-0.4,5.5-1.3,7.7c-0.9,2.2-2,3.8-3.2,4.7c-1,0.8-2.4,1.4-4.3,1.7c-1.8,0.3-4.2,0.5-7,0.5
			h-9.2c-0.5,0-0.8,0.1-1.1,0.3c-0.2,0.2-0.3,0.7-0.3,1.3v14.3c0,0.6-0.1,1-0.3,1.2c-0.2,0.2-0.5,0.3-1.1,0.3h-4.5
			c-0.4,0-0.6-0.1-0.7-0.2c-0.1-0.2-0.1-0.4-0.1-0.7V23.7c0-0.4,0.1-0.6,0.3-0.7c0.2-0.1,0.4-0.2,0.6-0.3c2.2-0.1,4.6-0.2,7-0.2
			c2.5-0.1,5-0.1,7.7-0.1c2.1,0,3.9,0,5.4,0.1c1.5,0.1,2.7,0.2,3.7,0.4c1,0.2,1.9,0.4,2.5,0.6c0.6,0.2,1.2,0.5,1.8,0.9
			c0.5,0.4,1,0.8,1.5,1.4c0.5,0.6,0.9,1.3,1.3,2.2c0.4,0.9,0.7,1.9,0.9,3.2C167.2,32.4,167.3,33.8,167.3,35.5z M160.5,36.1
			c0-2-0.2-3.5-0.6-4.5c-0.4-1-1-1.8-1.6-2.3c-0.3-0.2-0.6-0.4-1-0.5c-0.4-0.2-0.9-0.3-1.6-0.4c-0.6-0.1-1.4-0.2-2.3-0.2
			c-0.9-0.1-2.1-0.1-3.4-0.1c-1.6,0-3.1,0-4.5,0s-2.5,0-3.4,0.1c-0.4,0-0.7,0.1-0.9,0.3c-0.2,0.2-0.3,0.5-0.3,1v13.7
			c0,0.6,0.1,1,0.3,1.2c0.2,0.2,0.6,0.3,1.1,0.3h8.4c1.9,0,3.3-0.1,4.3-0.2c1-0.1,1.7-0.3,2.3-0.6c0.8-0.5,1.6-1.3,2.3-2.6
			C160.1,40,160.5,38.3,160.5,36.1z"/>
		<path class="st0" d="M186.5,65.6c0,1.3-0.6,1.9-1.9,1.9h-3.9c-0.3,0-0.5-0.1-0.6-0.3c-0.1-0.2-0.2-0.4-0.2-0.7V24.3
			c0-1.2,0.6-1.9,1.7-1.9h4.1c0.4,0,0.6,0.1,0.7,0.3c0.1,0.2,0.1,0.4,0.1,0.7V65.6z"/>
		<path class="st0" d="M217.6,47.7c-1.5,0-2.6,0.3-3.3,0.8c-0.7,0.5-1.4,1.6-2.1,3.1l-5.9,12.6c-0.6,1.3-1.2,2.2-2,2.7
			c-0.7,0.5-1.8,0.7-3.2,0.7h-2.3c-0.3,0-0.5-0.1-0.7-0.3c-0.2-0.2-0.2-0.5,0.1-0.9l8.3-17.4c0.9-1.9,1.3-3.4,1.3-4.5
			c0-0.5-0.1-1.1-0.3-1.8c-0.2-0.7-0.6-1.6-1.1-2.8l-7.2-16.2c-0.2-0.4-0.2-0.6,0-0.9c0.2-0.2,0.5-0.3,0.8-0.3h2
			c1.6,0,2.7,0.2,3.4,0.7c0.7,0.5,1.3,1.4,1.8,2.7l5.1,11.7c0.4,0.9,0.8,1.7,1.1,2.3c0.3,0.6,0.7,1,1.1,1.3c0.4,0.3,0.8,0.5,1.3,0.6
			c0.5,0.1,1.1,0.2,1.9,0.2h1.7c0.8,0,1.4,0,1.9-0.1c0.5-0.1,1-0.3,1.4-0.5c0.4-0.3,0.8-0.6,1.1-1.1c0.3-0.5,0.7-1.1,1-1.9l5.9-12.5
			c0.6-1.3,1.2-2.2,1.9-2.6c0.7-0.5,1.7-0.7,3.1-0.7h2.1c0.4,0,0.6,0.1,0.8,0.3c0.2,0.2,0.2,0.5,0,1l-8.2,17.2c-0.4,1-0.8,1.8-1,2.4
			c-0.2,0.6-0.3,1.2-0.3,1.9c0,0.9,0.5,2.4,1.5,4.6l7.4,16.5c0.1,0.4,0.1,0.6,0,0.9c-0.2,0.2-0.4,0.3-0.8,0.3h-2.1
			c-1.5,0-2.6-0.2-3.4-0.7c-0.7-0.5-1.3-1.4-1.8-2.8l-5.3-12c-0.4-0.9-0.8-1.7-1.1-2.3c-0.3-0.6-0.7-1-1.1-1.3
			c-0.4-0.3-0.8-0.5-1.3-0.6c-0.5-0.1-1.2-0.2-2-0.2H217.6z"/>
		<path class="st0" d="M271.1,48.6c-0.6,1-1.1,2-1.3,3c-0.2,1-0.4,2.2-0.4,3.7v10.8c0,0.5-0.1,0.8-0.2,1.1c-0.2,0.2-0.5,0.3-1,0.3
			h-4.6c-0.6,0-0.9-0.3-0.9-0.9V55.9c0-1.5-0.1-2.8-0.3-3.9c-0.2-1.1-0.7-2.2-1.5-3.5l-15.1-24.7c-0.2-0.4-0.2-0.7-0.1-0.9
			c0.2-0.3,0.5-0.4,1-0.4h2.1c1.5,0,2.6,0.2,3.5,0.7s1.7,1.4,2.5,2.9l8.8,14.7c0.5,0.8,0.9,1.5,1.4,2c0.4,0.5,0.8,0.8,1.2,0.8
			c0.6,0,1.4-0.8,2.6-2.5l8.8-14.5c0.4-0.8,0.8-1.5,1.2-2c0.4-0.5,0.9-0.9,1.4-1.2c0.5-0.3,1-0.5,1.6-0.6c0.6-0.1,1.3-0.2,2.2-0.2
			h1.8c0.4,0,0.6,0.1,0.8,0.3c0.2,0.2,0.1,0.5-0.1,0.9L271.1,48.6z"/>
	</g>
</g>
</svg>
