<?xml version="1.0" encoding="utf-8"?>
<!-- Generator: Adobe Illustrator 23.0.1, SVG Export Plug-In . SVG Version: 6.00 Build 0)  -->
<svg version="1.1" id="Layer_1" xmlns="http://www.w3.org/2000/svg" xmlns:xlink="http://www.w3.org/1999/xlink" x="0px" y="0px"
	 viewBox="0 0 134.4 39.8" style="enable-background:new 0 0 134.4 39.8;" xml:space="preserve">
<style type="text/css">
	.st0{fill:#00BCD4;}
	.st1{fill:#FFFFFF;}
	.st2{font-family:'BiomeW01-Regular';}
	.st3{font-size:30.8681px;}
	.st4{letter-spacing:1;}
</style>
<circle class="st0" cx="5.5" cy="5.5" r="5.5"/>
<path class="st0" d="M27.8,25.7l17,10.2c-5,3.3-11.3,4.3-17.1,2.4L27.8,25.7z M46.8,34.4c1.5-1.3,2.8-2.9,3.9-4.6
	c2.2-3.6,3-7.6,2.8-11.5L36,27.9L46.8,34.4z M53.1,15.7c-1.1-5.2-4.2-10-9.2-13c-0.5-0.3-1-0.6-1.5-0.8l-0.4,20L53.1,15.7z
	 M20.6,4.9c-1.4,1.3-2.7,2.8-3.8,4.5c-2.1,3.5-3,7.4-2.8,11.2l17.4-9.2L20.6,4.9z M25.5,17.3l-0.2,20.1c-0.6-0.3-1.1-0.6-1.7-0.9
	c-5.1-3.1-8.2-8-9.2-13.4L25.5,17.3z M39.8,13.6l-17-10.2C27.8,0,34.1-0.9,39.9,1L39.8,13.6z"/>
<text transform="matrix(1 0 0 1 59.1033 31.27)" class="st1 st2 st3 st4">PIXY</text>
</svg>
