<?xml version="1.0" encoding="utf-8"?>
<!-- Generator: Adobe Illustrator 23.0.1, SVG Export Plug-In . SVG Version: 6.00 Build 0)  -->
<svg version="1.1" id="Layer_1" xmlns="http://www.w3.org/2000/svg" xmlns:xlink="http://www.w3.org/1999/xlink" x="0px" y="0px"
	 viewBox="0 0 134.4 39.8" style="enable-background:new 0 0 134.4 39.8;" xml:space="preserve">
<style type="text/css">
	.st0{fill:#00BCD4;}
	.st1{enable-background:new    ;}
	.st2{fill:#FFFFFF;}
</style>
<circle class="st0" cx="5.5" cy="5.5" r="5.5"/>
<path class="st0" d="M27.8,25.7l17,10.2c-5,3.3-11.3,4.3-17.1,2.4L27.8,25.7z M46.8,34.4c1.5-1.3,2.8-2.9,3.9-4.6
	c2.2-3.6,3-7.6,2.8-11.5L36,27.9L46.8,34.4z M53.1,15.7c-1.1-5.2-4.2-10-9.2-13c-0.5-0.3-1-0.6-1.5-0.8l-0.4,20L53.1,15.7z
	 M20.6,4.9c-1.4,1.3-2.7,2.8-3.8,4.5c-2.1,3.5-3,7.4-2.8,11.2l17.4-9.2L20.6,4.9z M25.5,17.3l-0.2,20.1c-0.6-0.3-1.1-0.6-1.7-0.9
	c-5.1-3.1-8.2-8-9.2-13.4L25.5,17.3z M39.8,13.6l-17-10.2C27.8,0,34.1-0.9,39.9,1L39.8,13.6z"/>
<g class="st1">
	<path class="st2" d="M77.5,16.4c0,1.3-0.2,2.5-0.6,3.6c-0.4,1-0.9,1.8-1.5,2.2c-0.5,0.4-1.1,0.6-2,0.8c-0.8,0.2-1.9,0.2-3.2,0.2
		h-4.3c-0.2,0-0.4,0.1-0.5,0.2c-0.1,0.1-0.2,0.3-0.2,0.6v6.6c0,0.3,0,0.4-0.1,0.5c-0.1,0.1-0.2,0.1-0.5,0.1h-2.1
		c-0.2,0-0.3,0-0.3-0.1c0-0.1-0.1-0.2-0.1-0.3V11c0-0.2,0-0.3,0.1-0.3c0.1-0.1,0.2-0.1,0.3-0.1c1,0,2.1-0.1,3.3-0.1
		c1.1,0,2.3,0,3.6,0c1,0,1.8,0,2.5,0c0.7,0,1.3,0.1,1.7,0.2c0.5,0.1,0.9,0.2,1.2,0.3c0.3,0.1,0.6,0.3,0.8,0.4
		c0.2,0.2,0.5,0.4,0.7,0.7c0.2,0.3,0.4,0.6,0.6,1c0.2,0.4,0.3,0.9,0.4,1.5C77.4,15,77.5,15.7,77.5,16.4z M74.3,16.7
		c0-0.9-0.1-1.6-0.3-2.1c-0.2-0.5-0.4-0.8-0.8-1c-0.1-0.1-0.3-0.2-0.5-0.2s-0.4-0.1-0.7-0.2c-0.3,0-0.6-0.1-1.1-0.1
		c-0.4,0-1,0-1.6,0c-0.7,0-1.4,0-2.1,0s-1.2,0-1.6,0.1c-0.2,0-0.3,0.1-0.4,0.1c-0.1,0.1-0.1,0.2-0.1,0.4v6.3c0,0.3,0,0.4,0.1,0.5
		c0.1,0.1,0.3,0.1,0.5,0.1h3.9c0.9,0,1.5,0,2-0.1c0.4-0.1,0.8-0.1,1.1-0.3c0.4-0.2,0.7-0.6,1-1.2C74.2,18.5,74.3,17.7,74.3,16.7z"/>
	<path class="st2" d="M85.8,30.4c0,0.6-0.3,0.9-0.9,0.9h-1.8c-0.1,0-0.2,0-0.3-0.1c-0.1-0.1-0.1-0.2-0.1-0.3V11.3
		c0-0.6,0.3-0.9,0.8-0.9h1.9c0.2,0,0.3,0,0.3,0.1c0,0.1,0.1,0.2,0.1,0.3V30.4z"/>
	<path class="st2" d="M99.7,22.1c-0.7,0-1.2,0.1-1.5,0.4c-0.3,0.2-0.6,0.7-1,1.4l-2.7,5.8c-0.3,0.6-0.6,1-0.9,1.3
		c-0.3,0.2-0.8,0.3-1.5,0.3h-1c-0.1,0-0.2-0.1-0.3-0.2c-0.1-0.1-0.1-0.2,0-0.4l3.8-8.1c0.4-0.9,0.6-1.6,0.6-2.1
		c0-0.2-0.1-0.5-0.2-0.8c-0.1-0.3-0.3-0.8-0.5-1.3L91.2,11c-0.1-0.2-0.1-0.3,0-0.4c0.1-0.1,0.2-0.2,0.4-0.2h0.9
		c0.7,0,1.3,0.1,1.6,0.3c0.3,0.2,0.6,0.6,0.8,1.2l2.4,5.4c0.2,0.4,0.4,0.8,0.5,1c0.2,0.3,0.3,0.5,0.5,0.6c0.2,0.1,0.4,0.2,0.6,0.3
		s0.5,0.1,0.9,0.1h0.8c0.3,0,0.6,0,0.9-0.1s0.4-0.1,0.6-0.2c0.2-0.1,0.4-0.3,0.5-0.5c0.2-0.2,0.3-0.5,0.5-0.9l2.7-5.8
		c0.3-0.6,0.6-1,0.9-1.2c0.3-0.2,0.8-0.3,1.5-0.3h1c0.2,0,0.3,0,0.4,0.1c0.1,0.1,0.1,0.2,0,0.4l-3.8,8c-0.2,0.5-0.4,0.8-0.5,1.1
		c-0.1,0.3-0.2,0.6-0.2,0.9c0,0.4,0.2,1.1,0.7,2.1l3.4,7.7c0.1,0.2,0.1,0.3,0,0.4c-0.1,0.1-0.2,0.2-0.4,0.2h-1
		c-0.7,0-1.2-0.1-1.6-0.3c-0.3-0.2-0.6-0.7-0.8-1.3l-2.4-5.6c-0.2-0.4-0.4-0.8-0.5-1.1c-0.2-0.3-0.3-0.5-0.5-0.6
		c-0.2-0.1-0.4-0.2-0.6-0.3c-0.2-0.1-0.5-0.1-0.9-0.1H99.7z"/>
	<path class="st2" d="M123.9,22.5c-0.3,0.5-0.5,0.9-0.6,1.4s-0.2,1-0.2,1.7v5c0,0.2,0,0.4-0.1,0.5c-0.1,0.1-0.2,0.2-0.4,0.2h-2.1
		c-0.3,0-0.4-0.1-0.4-0.4v-5c0-0.7-0.1-1.3-0.2-1.8c-0.1-0.5-0.3-1-0.7-1.6l-7-11.5c-0.1-0.2-0.1-0.3,0-0.4c0.1-0.1,0.2-0.2,0.5-0.2
		h1c0.7,0,1.2,0.1,1.6,0.3c0.4,0.2,0.8,0.6,1.1,1.3l4.1,6.8c0.2,0.4,0.4,0.7,0.6,0.9s0.4,0.4,0.5,0.4c0.3,0,0.7-0.4,1.2-1.1l4.1-6.7
		c0.2-0.4,0.4-0.7,0.6-0.9c0.2-0.2,0.4-0.4,0.6-0.6c0.2-0.1,0.5-0.2,0.8-0.3c0.3-0.1,0.6-0.1,1-0.1h0.8c0.2,0,0.3,0.1,0.4,0.2
		c0.1,0.1,0.1,0.2,0,0.4L123.9,22.5z"/>
</g>
</svg>
